<?xml version="1.0" encoding="utf-8"?>
<!-- Generator: Adobe Illustrator 22.1.0, SVG Export Plug-In . SVG Version: 6.00 Build 0)  -->
<svg version="1.1" id="Layer_1" xmlns="http://www.w3.org/2000/svg" xmlns:xlink="http://www.w3.org/1999/xlink" x="0px" y="0px"
	 viewBox="0 0 276 38" style="enable-background:new 0 0 276 38;" xml:space="preserve">
<style type="text/css">
	.st0{fill:#FFFFFF;}
</style>
<g>
	<path class="st0" d="M10.8,3.5h6v16.9c0,5.3-3.2,8.2-8.2,8.2c-5.1,0-8.6-3-8.6-8.5h6c0,2.1,0.9,3.1,2.5,3.1c1.4,0,2.3-0.9,2.3-2.8
		V3.5z"/>
	<path class="st0" d="M29.2,8.3c2.9,0,5,1.3,6.1,3.1V8.6h6v19.7h-6v-2.8c-1.1,1.7-3.2,3.1-6.1,3.1c-4.8,0-8.6-4-8.6-10.2
		C20.5,12.2,24.3,8.3,29.2,8.3z M30.9,13.6c-2.3,0-4.3,1.7-4.3,4.8c0,3.1,2,4.9,4.3,4.9c2.3,0,4.3-1.7,4.3-4.9
		C35.2,15.3,33.2,13.6,30.9,13.6z"/>
	<path class="st0" d="M53.6,28.6c-5.3,0-8.8-2.9-9.1-6.7h6c0.1,1.4,1.4,2.3,3,2.3c1.6,0,2.4-0.7,2.4-1.6c0-3.2-10.7-0.9-10.7-8.1
		c0-3.4,2.9-6.1,8-6.1c5.1,0,7.9,2.8,8.3,6.7h-5.6c-0.2-1.3-1.2-2.2-2.9-2.2c-1.4,0-2.2,0.6-2.2,1.5c0,3.1,10.7,0.9,10.8,8.3
		C61.6,26,58.6,28.6,53.6,28.6z"/>
	<path class="st0" d="M92.5,17.6c0-2.6-1.5-4-3.8-4c-2.3,0-3.8,1.4-3.8,4v10.7h-6V17.6c0-2.6-1.5-4-3.8-4c-2.3,0-3.8,1.4-3.8,4v10.7
		h-6V8.6h6V11c1.2-1.6,3.2-2.7,5.8-2.7c3,0,5.4,1.3,6.7,3.7c1.3-2.1,3.8-3.7,6.6-3.7c4.9,0,8,3.1,8,8.4v11.5h-6V17.6z"/>
	<path class="st0" d="M102.1,3.3c0-1.8,1.4-3.3,3.6-3.3c2.1,0,3.6,1.4,3.6,3.3c0,1.8-1.4,3.2-3.6,3.2C103.6,6.5,102.1,5.1,102.1,3.3
		z M102.7,8.6h6v19.7h-6V8.6z"/>
	<path class="st0" d="M126.7,17.6c0-2.7-1.5-4.2-3.8-4.2c-2.3,0-3.8,1.5-3.8,4.2v10.7h-6V8.6h6v2.6c1.2-1.7,3.3-2.8,6-2.8
		c4.6,0,7.6,3.1,7.6,8.4v11.5h-6V17.6z"/>
	<path class="st0" d="M145.7,28.6c-5.8,0-10-3.9-10-10.1s4.1-10.1,10-10.1c5.8,0,9.8,3.8,9.8,9.8c0,0.6,0,1.2-0.1,1.8h-13.7
		c0.2,2.6,1.8,3.8,3.7,3.8c1.7,0,2.6-0.8,3.1-1.9h6.4C154.1,25.6,150.6,28.6,145.7,28.6z M141.7,16.5h7.6c0-2.2-1.7-3.4-3.7-3.4
		C143.6,13.1,142.1,14.3,141.7,16.5z"/>
	<path class="st0" d="M175.1,28.5c-5.3,0-9.5-2.6-9.7-7.7h6.4c0.2,1.9,1.4,2.8,3.1,2.8c1.8,0,2.9-0.9,2.9-2.3
		c0-4.6-12.4-2.1-12.3-10.9c0-4.7,3.8-7.3,9-7.3c5.4,0,9,2.7,9.3,7.4h-6.5C177.2,9,176,8,174.4,8c-1.4,0-2.5,0.7-2.5,2.3
		c0,4.3,12.2,2.4,12.2,10.7C184.1,25.1,180.9,28.5,175.1,28.5z"/>
	<path class="st0" d="M187.3,3.3c0-1.8,1.4-3.3,3.6-3.3c2.1,0,3.6,1.4,3.6,3.3c0,1.8-1.4,3.2-3.6,3.2C188.7,6.5,187.3,5.1,187.3,3.3
		z M187.8,8.6h6v19.7h-6V8.6z"/>
	<path class="st0" d="M198.2,2.2h6v26.1h-6V2.2z"/>
	<path class="st0" d="M216.1,8.3c2.9,0,5,1.3,6.1,3.1V8.6h6v19.7h-6v-2.8c-1.1,1.7-3.2,3.1-6.1,3.1c-4.8,0-8.6-4-8.6-10.2
		C207.5,12.2,211.3,8.3,216.1,8.3z M217.9,13.6c-2.3,0-4.3,1.7-4.3,4.8c0,3.1,2,4.9,4.3,4.9c2.3,0,4.3-1.7,4.3-4.9
		C222.2,15.3,220.2,13.6,217.9,13.6z"/>
	<path class="st0" d="M246.2,17.6c0-2.7-1.5-4.2-3.8-4.2c-2.3,0-3.8,1.5-3.8,4.2v10.7h-6V8.6h6v2.6c1.2-1.7,3.3-2.8,6-2.8
		c4.6,0,7.6,3.1,7.6,8.4v11.5h-6V17.6z"/>
	<path class="st0" d="M263.9,8.3c2.9,0,5,1.3,6.1,3.1V8.6h6v19.7c0,5.3-3,9.7-9.8,9.7c-5.9,0-9.7-3-10.2-7.7h6
		c0.4,1.5,1.9,2.4,4,2.4c2.3,0,4.1-1.2,4.1-4.5v-2.8c-1.1,1.7-3.2,3.1-6.1,3.1c-4.8,0-8.7-4-8.7-10.2
		C255.2,12.2,259.1,8.3,263.9,8.3z M265.7,13.6c-2.3,0-4.3,1.7-4.3,4.8c0,3.1,2,4.9,4.3,4.9c2.3,0,4.3-1.7,4.3-4.9
		C270,15.3,268,13.6,265.7,13.6z"/>
</g>
</svg>
