<?xml version="1.0" encoding="utf-8"?>
<!-- Generator: Adobe Illustrator 22.1.0, SVG Export Plug-In . SVG Version: 6.00 Build 0)  -->
<svg version="1.1" id="Layer_1" xmlns="http://www.w3.org/2000/svg" xmlns:xlink="http://www.w3.org/1999/xlink" x="0px" y="0px"
	 viewBox="0 0 500 500" style="enable-background:new 0 0 500 500;" xml:space="preserve">
<style type="text/css">
	.st0{fill:#FFFFFF;}
</style>
<g>
	<path class="st0" d="M115.6,247.8h6v16.9c0,5.3-3.2,8.2-8.2,8.2c-5.1,0-8.6-3-8.6-8.5h6c0,2.1,0.9,3.1,2.5,3.1
		c1.4,0,2.3-0.9,2.3-2.8V247.8z"/>
	<path class="st0" d="M134,252.6c2.9,0,5,1.3,6.1,3.1v-2.8h6v19.7h-6v-2.8c-1.1,1.7-3.2,3.1-6.1,3.1c-4.8,0-8.6-4-8.6-10.2
		C125.3,256.4,129.1,252.6,134,252.6z M135.7,257.8c-2.3,0-4.3,1.7-4.3,4.8c0,3.1,2,4.9,4.3,4.9c2.3,0,4.3-1.7,4.3-4.9
		C140,259.6,138,257.8,135.7,257.8z"/>
	<path class="st0" d="M158.5,272.8c-5.3,0-8.8-2.9-9.1-6.7h6c0.1,1.4,1.4,2.3,3,2.3c1.6,0,2.4-0.7,2.4-1.6c0-3.2-10.7-0.9-10.7-8.1
		c0-3.4,2.9-6.1,8-6.1c5.1,0,7.9,2.8,8.3,6.7h-5.6c-0.2-1.3-1.2-2.2-2.9-2.2c-1.4,0-2.2,0.6-2.2,1.5c0,3.1,10.7,0.9,10.8,8.3
		C166.4,270.2,163.4,272.8,158.5,272.8z"/>
	<path class="st0" d="M197.3,261.8c0-2.6-1.5-4-3.8-4c-2.3,0-3.8,1.4-3.8,4v10.7h-6v-10.7c0-2.6-1.5-4-3.8-4c-2.3,0-3.8,1.4-3.8,4
		v10.7h-6v-19.7h6v2.5c1.2-1.6,3.2-2.7,5.8-2.7c3,0,5.4,1.3,6.7,3.7c1.3-2.1,3.8-3.7,6.6-3.7c4.9,0,8,3.1,8,8.4v11.5h-6V261.8z"/>
	<path class="st0" d="M207,247.6c0-1.8,1.4-3.3,3.6-3.3c2.1,0,3.6,1.4,3.6,3.3c0,1.8-1.4,3.2-3.6,3.2
		C208.4,250.8,207,249.4,207,247.6z M207.5,252.8h6v19.7h-6V252.8z"/>
	<path class="st0" d="M231.5,261.8c0-2.7-1.5-4.2-3.8-4.2c-2.3,0-3.8,1.5-3.8,4.2v10.7h-6v-19.7h6v2.6c1.2-1.7,3.3-2.8,6-2.8
		c4.6,0,7.6,3.1,7.6,8.4v11.5h-6V261.8z"/>
	<path class="st0" d="M250.5,272.8c-5.8,0-10-3.9-10-10.1s4.1-10.1,10-10.1c5.8,0,9.8,3.8,9.8,9.8c0,0.6,0,1.2-0.1,1.8h-13.7
		c0.2,2.6,1.8,3.8,3.7,3.8c1.7,0,2.6-0.8,3.1-1.9h6.4C258.9,269.9,255.4,272.8,250.5,272.8z M246.6,260.8h7.6c0-2.2-1.7-3.4-3.7-3.4
		C248.4,257.4,246.9,258.6,246.6,260.8z"/>
	<path class="st0" d="M279.9,272.8c-5.3,0-9.5-2.6-9.7-7.7h6.4c0.2,1.9,1.4,2.8,3.1,2.8c1.8,0,2.9-0.9,2.9-2.3
		c0-4.6-12.4-2.1-12.3-10.9c0-4.7,3.8-7.3,9-7.3c5.4,0,9,2.7,9.3,7.4h-6.5c-0.1-1.6-1.2-2.5-2.9-2.6c-1.4,0-2.5,0.7-2.5,2.3
		c0,4.3,12.2,2.4,12.2,10.7C288.9,269.3,285.7,272.8,279.9,272.8z"/>
	<path class="st0" d="M292.1,247.6c0-1.8,1.4-3.3,3.6-3.3c2.1,0,3.6,1.4,3.6,3.3c0,1.8-1.4,3.2-3.6,3.2
		C293.5,250.8,292.1,249.4,292.1,247.6z M292.6,252.8h6v19.7h-6V252.8z"/>
	<path class="st0" d="M303.1,246.4h6v26.1h-6V246.4z"/>
	<path class="st0" d="M321,252.6c2.9,0,5,1.3,6.1,3.1v-2.8h6v19.7h-6v-2.8c-1.1,1.7-3.2,3.1-6.1,3.1c-4.8,0-8.6-4-8.6-10.2
		C312.3,256.4,316.1,252.6,321,252.6z M322.7,257.8c-2.3,0-4.3,1.7-4.3,4.8c0,3.1,2,4.9,4.3,4.9c2.3,0,4.3-1.7,4.3-4.9
		C327,259.6,325,257.8,322.7,257.8z"/>
	<path class="st0" d="M351,261.8c0-2.7-1.5-4.2-3.8-4.2c-2.3,0-3.8,1.5-3.8,4.2v10.7h-6v-19.7h6v2.6c1.2-1.7,3.3-2.8,6-2.8
		c4.6,0,7.6,3.1,7.6,8.4v11.5h-6V261.8z"/>
	<path class="st0" d="M368.7,252.6c2.9,0,5,1.3,6.1,3.1v-2.8h6v19.7c0,5.3-3,9.7-9.8,9.7c-5.9,0-9.7-3-10.2-7.7h6
		c0.4,1.5,1.9,2.4,4,2.4c2.3,0,4.1-1.2,4.1-4.5v-2.8c-1.1,1.7-3.2,3.1-6.1,3.1c-4.8,0-8.7-4-8.7-10.2
		C360,256.4,363.9,252.6,368.7,252.6z M370.5,257.8c-2.3,0-4.3,1.7-4.3,4.8c0,3.1,2,4.9,4.3,4.9c2.3,0,4.3-1.7,4.3-4.9
		C374.8,259.6,372.8,257.8,370.5,257.8z"/>
</g>
</svg>
